<svg xmlns="http://www.w3.org/2000/svg" viewBox="0 0 960 720" width="960" height="720">
  <style>
    text { font-family: "Courier New","Lucida Console",monospace; fill: #caf0f8; }
  </style>
  <defs>
    <pattern id="grid" width="30" height="30" patternUnits="userSpaceOnUse">
      <path d="M 30 0 L 0 0 0 30" fill="none" stroke="#112240" stroke-width="0.5"/>
    </pattern>
    <marker id="arr" markerWidth="8" markerHeight="6" refX="7" refY="3" orient="auto">
      <polygon points="0 0, 8 3, 0 6" fill="#00b4d8"/>
    </marker>
    <marker id="arr-grn" markerWidth="8" markerHeight="6" refX="7" refY="3" orient="auto">
      <polygon points="0 0, 8 3, 0 6" fill="#06d6a0"/>
    </marker>
  </defs>
  <rect width="960" height="720" fill="#0a1628"/>
  <rect width="960" height="720" fill="url(#grid)" opacity="0.6"/>
  <text x="480" y="32" text-anchor="middle" font-size="16" font-weight="700" fill="#ffffff" letter-spacing="2">PACKAGE STRUCTURE — model-server</text>
  <rect x="20" y="55" width="920" height="185" rx="2" fill="none" stroke="#00b4d8" stroke-width="1" stroke-dasharray="6,3"/>
  <text x="30" y="72" font-size="10" fill="#00b4d8" letter-spacing="1">HTTP LAYER</text>
  <rect x="35" y="83" width="155" height="145" rx="2" fill="#0d1f3c" stroke="#00b4d8" stroke-width="1"/>
  <text x="113" y="104" text-anchor="middle" font-size="11" font-weight="700" fill="#ffffff">cmd/model-server</text>
  <text x="113" y="120" text-anchor="middle" font-size="10" fill="#90e0ef">main.go</text>
  <text x="113" y="138" text-anchor="middle" font-size="9" fill="#48cae4">wires all layers</text>
  <text x="113" y="152" text-anchor="middle" font-size="9" fill="#48cae4">signal.NotifyContext</text>
  <text x="113" y="166" text-anchor="middle" font-size="9" fill="#48cae4">graceful shutdown</text>
  <text x="113" y="180" text-anchor="middle" font-size="9" fill="#48cae4">Prometheus registry</text>
  <text x="113" y="194" text-anchor="middle" font-size="9" fill="#48cae4">refresh ticker</text>
  <text x="113" y="208" text-anchor="middle" font-size="9" fill="#48cae4">config.Load()</text>
  <rect x="220" y="83" width="155" height="145" rx="2" fill="#0d1f3c" stroke="#00b4d8" stroke-width="1"/>
  <text x="298" y="104" text-anchor="middle" font-size="11" font-weight="700" fill="#ffffff">internal/server</text>
  <text x="298" y="120" text-anchor="middle" font-size="10" fill="#90e0ef">router.go · server.go</text>
  <text x="298" y="138" text-anchor="middle" font-size="9" fill="#48cae4">middleware/</text>
  <text x="298" y="152" text-anchor="middle" font-size="9" fill="#48cae4">  auth.go</text>
  <text x="298" y="166" text-anchor="middle" font-size="9" fill="#48cae4">  logging.go</text>
  <text x="298" y="180" text-anchor="middle" font-size="9" fill="#48cae4">  metrics.go</text>
  <text x="298" y="194" text-anchor="middle" font-size="9" fill="#48cae4">chi router</text>
  <rect x="405" y="83" width="145" height="145" rx="2" fill="#0d1f3c" stroke="#00b4d8" stroke-width="1"/>
  <text x="478" y="104" text-anchor="middle" font-size="11" font-weight="700" fill="#ffffff">api/hfhub</text>
  <text x="478" y="120" text-anchor="middle" font-size="10" fill="#90e0ef">handler.go</text>
  <text x="478" y="136" text-anchor="middle" font-size="9" fill="#48cae4">GET /api/models</text>
  <text x="478" y="150" text-anchor="middle" font-size="9" fill="#48cae4">GET /api/models/{id}</text>
  <text x="478" y="164" text-anchor="middle" font-size="9" fill="#48cae4">/tree/{revision}</text>
  <text x="478" y="178" text-anchor="middle" font-size="9" fill="#48cae4">/resolve/…</text>
  <text x="478" y="192" text-anchor="middle" font-size="9" fill="#48cae4">types.go  ModelInfo</text>
  <rect x="575" y="83" width="145" height="145" rx="2" fill="#0d1f3c" stroke="#00b4d8" stroke-width="1"/>
  <text x="648" y="104" text-anchor="middle" font-size="11" font-weight="700" fill="#ffffff">api/ollama</text>
  <text x="648" y="120" text-anchor="middle" font-size="10" fill="#90e0ef">handler.go</text>
  <text x="648" y="136" text-anchor="middle" font-size="9" fill="#48cae4">GET /api/tags</text>
  <text x="648" y="150" text-anchor="middle" font-size="9" fill="#48cae4">POST /api/show</text>
  <text x="648" y="164" text-anchor="middle" font-size="9" fill="#48cae4">POST /api/pull</text>
  <text x="648" y="178" text-anchor="middle" font-size="9" fill="#48cae4">NDJSON streaming</text>
  <text x="648" y="192" text-anchor="middle" font-size="9" fill="#48cae4">types.go  TagsResp</text>
  <rect x="745" y="83" width="145" height="145" rx="2" fill="#0d1f3c" stroke="#00b4d8" stroke-width="1"/>
  <text x="818" y="104" text-anchor="middle" font-size="11" font-weight="700" fill="#ffffff">api/health</text>
  <text x="818" y="120" text-anchor="middle" font-size="10" fill="#90e0ef">handler.go</text>
  <text x="818" y="136" text-anchor="middle" font-size="9" fill="#48cae4">GET /healthz</text>
  <text x="818" y="150" text-anchor="middle" font-size="9" fill="#48cae4">GET /readyz</text>
  <text x="818" y="164" text-anchor="middle" font-size="9" fill="#48cae4">reg.Ready() check</text>
  <rect x="20" y="265" width="920" height="165" rx="2" fill="none" stroke="#06d6a0" stroke-width="1" stroke-dasharray="6,3"/>
  <text x="30" y="282" font-size="10" fill="#06d6a0" letter-spacing="1">REGISTRY LAYER</text>
  <rect x="35" y="293" width="210" height="120" rx="2" fill="#0d1f3c" stroke="#06d6a0" stroke-width="1"/>
  <text x="140" y="314" text-anchor="middle" font-size="11" font-weight="700" fill="#ffffff">registry.go</text>
  <text x="140" y="330" text-anchor="middle" font-size="10" fill="#06d6a0">ModelRegistry interface</text>
  <text x="140" y="346" text-anchor="middle" font-size="9" fill="#90e0ef">Search(ctx, filter)</text>
  <text x="140" y="360" text-anchor="middle" font-size="9" fill="#90e0ef">Describe(ctx, id, ver)</text>
  <text x="140" y="374" text-anchor="middle" font-size="9" fill="#90e0ef">ListFiles · OpenFile</text>
  <text x="140" y="388" text-anchor="middle" font-size="9" fill="#90e0ef">Refresh · Ready</text>
  <rect x="270" y="293" width="210" height="120" rx="2" fill="#0d1f3c" stroke="#06d6a0" stroke-width="1"/>
  <text x="375" y="314" text-anchor="middle" font-size="11" font-weight="700" fill="#ffffff">resolver.go</text>
  <text x="375" y="330" text-anchor="middle" font-size="10" fill="#06d6a0">OCMRegistry impl</text>
  <text x="375" y="346" text-anchor="middle" font-size="9" fill="#90e0ef">resolveComponent(id)</text>
  <text x="375" y="360" text-anchor="middle" font-size="9" fill="#90e0ef">buildIndex(ctx)</text>
  <text x="375" y="374" text-anchor="middle" font-size="9" fill="#90e0ef">infoToDescriptor()</text>
  <rect x="505" y="293" width="210" height="120" rx="2" fill="#0d1f3c" stroke="#06d6a0" stroke-width="1"/>
  <text x="610" y="314" text-anchor="middle" font-size="11" font-weight="700" fill="#ffffff">index.go</text>
  <text x="610" y="330" text-anchor="middle" font-size="10" fill="#06d6a0">in-memory index</text>
  <text x="610" y="346" text-anchor="middle" font-size="9" fill="#90e0ef">sync.RWMutex</text>
  <text x="610" y="360" text-anchor="middle" font-size="9" fill="#90e0ef">modelID → descriptor</text>
  <text x="610" y="374" text-anchor="middle" font-size="9" fill="#90e0ef">search(filter)</text>
  <text x="610" y="388" text-anchor="middle" font-size="9" fill="#90e0ef">observability gauge</text>
  <rect x="740" y="293" width="185" height="120" rx="2" fill="#0d1f3c" stroke="#06d6a0" stroke-width="1"/>
  <text x="833" y="314" text-anchor="middle" font-size="11" font-weight="700" fill="#ffffff">types.go</text>
  <text x="833" y="330" text-anchor="middle" font-size="10" fill="#06d6a0">core data types</text>
  <text x="833" y="346" text-anchor="middle" font-size="9" fill="#90e0ef">ModelDescriptor</text>
  <text x="833" y="360" text-anchor="middle" font-size="9" fill="#90e0ef">FileEntry</text>
  <text x="833" y="374" text-anchor="middle" font-size="9" fill="#90e0ef">SearchFilter</text>
  <rect x="20" y="458" width="920" height="160" rx="2" fill="none" stroke="#48cae4" stroke-width="1" stroke-dasharray="6,3"/>
  <text x="30" y="475" font-size="10" fill="#48cae4" letter-spacing="1">OCM LAYER  +  CONFIG / OBSERVABILITY</text>
  <rect x="35" y="486" width="195" height="115" rx="2" fill="#0d1f3c" stroke="#48cae4" stroke-width="1"/>
  <text x="133" y="507" text-anchor="middle" font-size="11" font-weight="700" fill="#ffffff">ocm/client.go</text>
  <text x="133" y="523" text-anchor="middle" font-size="10" fill="#48cae4">Client · repoEntry</text>
  <text x="133" y="539" text-anchor="middle" font-size="9" fill="#90e0ef">NewClient(cfg)</text>
  <text x="133" y="553" text-anchor="middle" font-size="9" fill="#90e0ef">LookupVersion(ctx)</text>
  <text x="133" y="567" text-anchor="middle" font-size="9" fill="#90e0ef">ListComponents(ctx)</text>
  <text x="133" y="581" text-anchor="middle" font-size="9" fill="#90e0ef">OCI + CTF repos</text>
  <rect x="255" y="486" width="195" height="115" rx="2" fill="#0d1f3c" stroke="#48cae4" stroke-width="1"/>
  <text x="353" y="507" text-anchor="middle" font-size="11" font-weight="700" fill="#ffffff">ocm/descriptor.go</text>
  <text x="353" y="523" text-anchor="middle" font-size="10" fill="#48cae4">ExtractInfo()</text>
  <text x="353" y="539" text-anchor="middle" font-size="9" fill="#90e0ef">ComponentVersion type</text>
  <text x="353" y="553" text-anchor="middle" font-size="9" fill="#90e0ef">mapFiles()</text>
  <text x="353" y="567" text-anchor="middle" font-size="9" fill="#90e0ef">labelString/Bool()</text>
  <rect x="475" y="486" width="195" height="115" rx="2" fill="#0d1f3c" stroke="#48cae4" stroke-width="1"/>
  <text x="573" y="507" text-anchor="middle" font-size="11" font-weight="700" fill="#ffffff">ocm/resource.go</text>
  <text x="573" y="523" text-anchor="middle" font-size="10" fill="#48cae4">+ annotations.go</text>
  <text x="573" y="539" text-anchor="middle" font-size="9" fill="#90e0ef">OpenResource(cv, path)</text>
  <text x="573" y="553" text-anchor="middle" font-size="9" fill="#90e0ef">label constants</text>
  <text x="573" y="567" text-anchor="middle" font-size="9" fill="#90e0ef">MediaTypeForFormat()</text>
  <text x="573" y="581" text-anchor="middle" font-size="9" fill="#90e0ef">ResourceType consts</text>
  <rect x="695" y="486" width="230" height="115" rx="2" fill="#0d1f3c" stroke="#00b4d8" stroke-width="1" stroke-dasharray="4,2"/>
  <text x="810" y="507" text-anchor="middle" font-size="11" font-weight="700" fill="#ffffff">config + observability</text>
  <text x="810" y="523" text-anchor="middle" font-size="10" fill="#48cae4">config.go · validate.go</text>
  <text x="810" y="539" text-anchor="middle" font-size="9" fill="#90e0ef">Config · OCMConfig · AuthConfig</text>
  <text x="810" y="553" text-anchor="middle" font-size="9" fill="#90e0ef">slog.Logger setup</text>
  <text x="810" y="567" text-anchor="middle" font-size="9" fill="#90e0ef">Prometheus metrics</text>
  <text x="810" y="581" text-anchor="middle" font-size="9" fill="#90e0ef">IndexSize gauge</text>
  <polyline points="190,156 220,156" fill="none" stroke="#00b4d8" stroke-width="1.5" marker-end="url(#arr)"/>
  <polyline points="113,228 113,255 375,255 375,293" fill="none" stroke="#00b4d8" stroke-width="1" stroke-dasharray="3,2" marker-end="url(#arr)"/>
  <polyline points="478,228 478,255 140,255 140,293" fill="none" stroke="#06d6a0" stroke-width="1.5" marker-end="url(#arr-grn)"/>
  <polyline points="648,228 648,255 160,255 160,293" fill="none" stroke="#06d6a0" stroke-width="1.5" marker-end="url(#arr-grn)"/>
  <polyline points="818,228 818,255 180,255 180,293" fill="none" stroke="#06d6a0" stroke-width="1" stroke-dasharray="3,2" marker-end="url(#arr-grn)"/>
  <polyline points="480,353 505,353" fill="none" stroke="#06d6a0" stroke-width="1.5" marker-end="url(#arr-grn)"/>
  <polyline points="375,413 375,445 133,445 133,486" fill="none" stroke="#48cae4" stroke-width="1.5" marker-end="url(#arr)"/>
  <rect x="220" y="432" width="80" height="14" rx="1" fill="#0a1628" opacity="0.9"/>
  <text x="260" y="443" text-anchor="middle" font-size="9" fill="#48cae4">ocm.Client</text>
  <polyline points="390,413 390,445 353,445 353,486" fill="none" stroke="#48cae4" stroke-width="1.5" marker-end="url(#arr)"/>
  <polyline points="610,413 610,445 810,445 810,486" fill="none" stroke="#00b4d8" stroke-width="1" stroke-dasharray="3,2" marker-end="url(#arr)"/>
  <rect x="680" y="432" width="60" height="14" rx="1" fill="#0a1628" opacity="0.9"/>
  <text x="710" y="443" text-anchor="middle" font-size="9" fill="#48cae4">gauge</text>
  <polyline points="298,228 298,445 760,445 760,486" fill="none" stroke="#00b4d8" stroke-width="1" stroke-dasharray="3,2" marker-end="url(#arr)"/>
  <rect x="630" y="650" width="305" height="56" rx="2" fill="#0d1f3c" stroke="#00b4d8" stroke-width="1"/>
  <line x1="630" y1="666" x2="935" y2="666" stroke="#00b4d8" stroke-width="0.5"/>
  <text x="783" y="662" text-anchor="middle" font-size="9" fill="#caf0f8" letter-spacing="1">DIAGRAM 2 / 4</text>
  <text x="783" y="684" text-anchor="middle" font-size="12" font-weight="700" fill="#00b4d8">PACKAGE STRUCTURE</text>
  <text x="783" y="698" text-anchor="middle" font-size="10" fill="#90e0ef">internal dependency graph</text>
</svg>